<svg id="Camada_x0020_1" xmlns="http://www.w3.org/2000/svg" width="66.826" height="25.814" viewBox="0 0 66.826 25.814">
  <path id="Caminho_79" data-name="Caminho 79" d="M24.959,13.115A3.608,3.608,0,0,1,26.907,9.6a3.41,3.41,0,0,1,3.84.605,3.946,3.946,0,0,1,.049,5.37,3.447,3.447,0,0,1-5.836-2.461Zm20.713,3.078a3.335,3.335,0,0,1-4.857-2.652,3.62,3.62,0,0,1,.327-2.273,3.044,3.044,0,0,1,2.379-1.93,3.159,3.159,0,0,1,3.059,1.019,3.855,3.855,0,0,1-.909,5.836Zm-8.6-9V18.179c-.007,1.855.015,1.747,2.689,1.7.945-.018.885-.484.885-1.4a9.378,9.378,0,0,0,1.521,1.061,5.943,5.943,0,0,0,5.987-.564,5.714,5.714,0,0,0,.96-.766l.788-1a7.341,7.341,0,0,0,1.111-2.463,7.662,7.662,0,0,0-1.554-6.669l-.894-.893A6.139,6.139,0,0,0,46.22,5.953c-3.171-1-4.866,1.069-5.375,1.2,0-.714.1-6.067-.061-6.492-.226-.583-1.07-.457-1.826-.458C36.725.2,37.072.5,37.072,2.69v4.5ZM15.925,1.4V18.774c0,2.23,1.706,1.179,2.816.632a1.694,1.694,0,0,0,.957-1.724V2.293C19.7.672,17.377.009,16.818.009c-.716,0-.894.674-.894,1.39ZM3.812,11.889c.2-2.079,3.376-3.676,5.534-1.826a3.919,3.919,0,0,1,.973,1.553,3.842,3.842,0,0,1-1.642,4.543c-2.1.825-4.029.174-4.807-2.01a4.187,4.187,0,0,1-.058-2.26Zm9.929,8.638a7.183,7.183,0,0,0,.392-2.056l.005-7.441c0-5.837.56-5.045-2.387-5.068-1.19-.009-1.088.264-1.088,1.394a5.3,5.3,0,0,1-.482-.412c-2.416-1.976-5.228-1.462-7.563.311A6.568,6.568,0,0,0,.932,9.407a7.149,7.149,0,0,0-.78,4.786A7.407,7.407,0,0,0,.864,16.36a6.563,6.563,0,0,0,7.8,3.1,6.753,6.753,0,0,0,1.8-1.179c0,3.544-2.89,4.615-5.643,3.855-3.436-.949-2.75-2.72-4.319.382-.373.738-.654,1.147.2,1.657a12.278,12.278,0,0,0,5.012,1.653H7.741A8.554,8.554,0,0,0,8.8,25.647a6.165,6.165,0,0,0,4.282-3.164,5.694,5.694,0,0,0,.66-1.956Zm42.593-7.511a3.527,3.527,0,0,1,3.376-3.773c3.31,0,4.5,4.125,2.509,6.282a3.307,3.307,0,0,1-1.277.818c-.093.029-.295.084-.381.1a3.076,3.076,0,0,1-2.144-.154,3.5,3.5,0,0,1-2.084-3.278Zm-3.674-.7A6.934,6.934,0,0,0,54.819,18a7.086,7.086,0,0,0,10.67-.9A9.194,9.194,0,0,0,66.165,16,7.271,7.271,0,0,0,65.2,8.218c-.66-.821-.241-.309-.848-.84a7.074,7.074,0,0,0-9.826.641c-.177.2-.263.247-.437.469a6.929,6.929,0,0,0-1.43,3.832ZM27.938,20.164a6.951,6.951,0,0,0,5.437-2.009A7.355,7.355,0,0,0,31.146,6.234a7.165,7.165,0,0,0-9.688,4.977c-.989,5.1,2.687,8.953,6.48,8.953Z" transform="translate(-0.056 -0.009)" fill="#fff" fill-rule="evenodd"/>
</svg>
